{
  "accessors": [
    {
      "bufferView": 2,
      "componentType": 5126,
      "count": 26656,
      "max": [
        4153.736328125,
        156.9129638671875,
        1730.9495849609375
      ],
      "min": [
        -89.4892578125,
        -896.8504638671875,
        -377.750732421875
      ],
      "type": "VEC3"
    },
    {
      "bufferView": 2,
      "byteOffset": 319872,
      "componentType": 5126,
      "count": 26656,
      "max": [
        0.9997519850730896,
        0.9997701048851013,
        0.9999926090240479
      ],
      "min": [
        -0.999956488609314,
        -0.9995997548103333,
        -0.9991386532783508
      ],
      "type": "VEC3"
    },
    {
      "bufferView": 3,
      "componentType": 5126,
      "count": 26656,
      "max": [
        0.9999671578407288,
        0.7962071895599365,
        0.9999786019325256,
        1.0
      ],
      "min": [
        -0.9999960660934448,
        -0.9997812509536743,
        -0.9999861121177673,
        -1.0
      ],
      "type": "VEC4"
    },
    {
      "bufferView": 1,
      "componentType": 5126,
      "count": 26656,
      "max": [
        0.9861840009689331,
        0.9861840009689331
      ],
      "min": [
        0.01381599996238947,
        0.01381599996238947
      ],
      "type": "VEC2"
    },
    {
      "bufferView": 0,
      "componentType": 5125,
      "count": 147456,
      "type": "SCALAR"
    },
    {
      "bufferView": 2,
      "byteOffset": 639744,
      "componentType": 5126,
      "count": 24070,
      "max": [
        73.05683898925781,
        105.24308776855469,
        281.61712646484375
      ],
      "min": [
        -73.02067565917969,
        -102.30416870117188,
        -281.4853210449219
      ],
      "type": "VEC3"
    },
    {
      "bufferView": 2,
      "byteOffset": 928584,
      "componentType": 5126,
      "count": 24070,
      "max": [
        0.9999775886535645,
        1.0,
        1.0
      ],
      "min": [
        -0.9999991059303284,
        -0.999993622303009,
        -0.9999993443489075
      ],
      "type": "VEC3"
    },
    {
      "bufferView": 3,
      "byteOffset": 426496,
      "componentType": 5126,
      "count": 24070,
      "max": [
        0.9999964237213135,
        0.9999911189079285,
        0.9997720718383789,
        1.0
      ],
      "min": [
        -0.9999863505363464,
        -0.99998939037323,
        -0.9997038841247559,
        -1.0
      ],
      "type": "VEC4"
    },
    {
      "bufferView": 1,
      "byteOffset": 213248,
      "componentType": 5126,
      "count": 24070,
      "max": [
        0.992995023727417,
        0.995032012462616
      ],
      "min": [
        0.0070050000213086605,
        0.0039059999398887157
      ],
      "type": "VEC2"
    },
    {
      "bufferView": 0,
      "byteOffset": 589824,
      "componentType": 5125,
      "count": 138144,
      "type": "SCALAR"
    }
  ],
  "asset": {
    "extras": {
      "author": "EonSculpts (https://sketchfab.com/EonSculpts)",
      "license": "CC-BY-4.0 (http://creativecommons.org/licenses/by/4.0/)",
      "source": "https://sketchfab.com/3d-models/red-panda-scultping-practice-d2565ea5914e411dbfe2141f3fb3ecb8",
      "title": "Red Panda - Scultping Practice"
    },
    "generator": "Sketchfab-12.68.0",
    "version": "2.0"
  },
  "bufferViews": [
    {
      "buffer": 0,
      "byteLength": 1142400,
      "name": "floatBufferViews",
      "target": 34963
    },
    {
      "buffer": 0,
      "byteLength": 405808,
      "byteOffset": 1142400,
      "byteStride": 8,
      "name": "floatBufferViews",
      "target": 34962
    },
    {
      "buffer": 0,
      "byteLength": 1217424,
      "byteOffset": 1548208,
      "byteStride": 12,
      "name": "floatBufferViews",
      "target": 34962
    },
    {
      "buffer": 0,
      "byteLength": 811616,
      "byteOffset": 2765632,
      "byteStride": 16,
      "name": "floatBufferViews",
      "target": 34962
    }
  ],
  "buffers": [
    {
      "byteLength": 3577248,
      "uri": "scene.bin"
    }
  ],
  "images": [
    {
      "uri": "textures/lambert1_baseColor.png"
    },
    {
      "uri": "textures/lambert1_metallicRoughness.png"
    },
    {
      "uri": "textures/lambert1_emissive.jpeg"
    },
    {
      "uri": "textures/lambert1_normal.png"
    },
    {
      "uri": "textures/Default_baseColor.png"
    },
    {
      "uri": "textures/Default_metallicRoughness.png"
    },
    {
      "uri": "textures/Default_emissive.jpeg"
    },
    {
      "uri": "textures/Default_normal.png"
    }
  ],
  "materials": [
    {
      "alphaMode": "BLEND",
      "doubleSided": true,
      "emissiveFactor": [
        1.0,
        1.0,
        1.0
      ],
      "emissiveTexture": {
        "index": 2
      },
      "name": "lambert1",
      "normalTexture": {
        "index": 3
      },
      "occlusionTexture": {
        "index": 1
      },
      "pbrMetallicRoughness": {
        "baseColorTexture": {
          "index": 0
        },
        "metallicRoughnessTexture": {
          "index": 1
        }
      }
    },
    {
      "alphaMode": "BLEND",
      "doubleSided": true,
      "emissiveFactor": [
        1.0,
        1.0,
        1.0
      ],
      "emissiveTexture": {
        "index": 6
      },
      "name": "Default",
      "normalTexture": {
        "index": 7
      },
      "pbrMetallicRoughness": {
        "baseColorTexture": {
          "index": 4
        },
        "metallicRoughnessTexture": {
          "index": 5
        }
      }
    }
  ],
  "meshes": [
    {
      "name": "defaultMaterial",
      "primitives": [
        {
          "attributes": {
            "NORMAL": 1,
            "POSITION": 0,
            "TANGENT": 2,
            "TEXCOORD_0": 3
          },
          "indices": 4,
          "material": 1,
          "mode": 4
        }
      ]
    },
    {
      "name": "defaultMaterial",
      "primitives": [
        {
          "attributes": {
            "NORMAL": 6,
            "POSITION": 5,
            "TANGENT": 7,
            "TEXCOORD_0": 8
          },
          "indices": 9,
          "material": 0,
          "mode": 4
        }
      ]
    }
  ],
  "nodes": [
    {
      "children": [
        1
      ],
      "matrix": [
        1.0,
        0.0,
        0.0,
        0.0,
        0.0,
        2.220446049250313e-16,
        -1.0,
        0.0,
        0.0,
        1.0,
        2.220446049250313e-16,
        0.0,
        0.0,
        0.0,
        0.0,
        1.0
      ],
      "name": "Sketchfab_model"
    },
    {
      "children": [
        2,
        4
      ],
      "matrix": [
        1.0,
        0.0,
        0.0,
        0.0,
        0.0,
        -4.371139006309477e-08,
        0.999999999999999,
        0.0,
        0.0,
        -0.999999999999999,
        -4.371139006309477e-08,
        0.0,
        0.0,
        0.0,
        0.0,
        1.0
      ],
      "name": "Collada visual scene group"
    },
    {
      "children": [
        3
      ],
      "matrix": [
        0.028763,
        0.001842,
        0.004997,
        0.0,
        -0.000201,
        0.041059,
        -0.013979,
        0.0,
        -0.012559,
        0.021812,
        0.064248,
        0.0,
        -42.26725,
        -96.996841,
        -169.644852,
        1.0
      ],
      "name": "Claws_FR"
    },
    {
      "mesh": 0,
      "name": "defaultMaterial"
    },
    {
      "children": [
        5
      ],
      "name": "pCube4"
    },
    {
      "mesh": 1,
      "name": "defaultMaterial"
    }
  ],
  "samplers": [
    {
      "magFilter": 9729,
      "minFilter": 9987,
      "wrapS": 10497,
      "wrapT": 10497
    }
  ],
  "scene": 0,
  "scenes": [
    {
      "name": "Sketchfab_Scene",
      "nodes": [
        0
      ]
    }
  ],
  "textures": [
    {
      "sampler": 0,
      "source": 0
    },
    {
      "sampler": 0,
      "source": 1
    },
    {
      "sampler": 0,
      "source": 2
    },
    {
      "sampler": 0,
      "source": 3
    },
    {
      "sampler": 0,
      "source": 4
    },
    {
      "sampler": 0,
      "source": 5
    },
    {
      "sampler": 0,
      "source": 6
    },
    {
      "sampler": 0,
      "source": 7
    }
  ]
}
